<mxfile host="65bd71144e">
    <diagram id="Uavbv_Gp21-UmvyHedY1" name="MCD">
        <mxGraphModel dx="2320" dy="1423" grid="1" gridSize="10" guides="1" tooltips="1" connect="1" arrows="1" fold="1" page="0" pageScale="1" pageWidth="850" pageHeight="1100" math="0" shadow="0">
            <root>
                <mxCell id="0"/>
                <mxCell id="1" parent="0"/>
                <mxCell id="101" value="" style="ellipse;whiteSpace=wrap;html=1;strokeWidth=0;rotation=0;" parent="1" vertex="1">
                    <mxGeometry x="120.00024789903085" y="740.0049301524641" width="80.92758543259905" height="45.99965313878887" as="geometry"/>
                </mxCell>
                <mxCell id="11" value="&lt;b&gt;&lt;font color=&quot;#d2ab11&quot;&gt;Evenement&lt;/font&gt;&lt;/b&gt;" style="swimlane;fontStyle=0;childLayout=stackLayout;horizontal=1;startSize=30;horizontalStack=0;resizeParent=1;resizeParentMax=0;resizeLast=0;collapsible=1;marginBottom=0;whiteSpace=wrap;html=1;" parent="1" vertex="1">
                    <mxGeometry x="400" y="440" width="140" height="180" as="geometry"/>
                </mxCell>
                <mxCell id="12" value="id_event" style="text;align=left;verticalAlign=middle;spacingLeft=4;spacingRight=4;overflow=hidden;points=[[0,0.5],[1,0.5]];portConstraint=eastwest;rotatable=0;whiteSpace=wrap;html=1;fillColor=none;strokeWidth=10;" parent="11" vertex="1">
                    <mxGeometry y="30" width="140" height="30" as="geometry"/>
                </mxCell>
                <mxCell id="13" value="titre" style="text;strokeColor=none;fillColor=none;align=left;verticalAlign=middle;spacingLeft=4;spacingRight=4;overflow=hidden;points=[[0,0.5],[1,0.5]];portConstraint=eastwest;rotatable=0;whiteSpace=wrap;html=1;strokeWidth=8;" parent="11" vertex="1">
                    <mxGeometry y="60" width="140" height="30" as="geometry"/>
                </mxCell>
                <mxCell id="14" value="date&amp;nbsp;" style="text;strokeColor=none;fillColor=none;align=left;verticalAlign=middle;spacingLeft=4;spacingRight=4;overflow=hidden;points=[[0,0.5],[1,0.5]];portConstraint=eastwest;rotatable=0;whiteSpace=wrap;html=1;" parent="11" vertex="1">
                    <mxGeometry y="90" width="140" height="30" as="geometry"/>
                </mxCell>
                <mxCell id="15" value="lieu" style="text;strokeColor=none;fillColor=none;align=left;verticalAlign=middle;spacingLeft=4;spacingRight=4;overflow=hidden;points=[[0,0.5],[1,0.5]];portConstraint=eastwest;rotatable=0;whiteSpace=wrap;html=1;" parent="11" vertex="1">
                    <mxGeometry y="120" width="140" height="30" as="geometry"/>
                </mxCell>
                <mxCell id="16" value="numero_des_tickets_restés" style="text;strokeColor=none;fillColor=none;align=left;verticalAlign=middle;spacingLeft=4;spacingRight=4;overflow=hidden;points=[[0,0.5],[1,0.5]];portConstraint=eastwest;rotatable=0;whiteSpace=wrap;html=1;" parent="11" vertex="1">
                    <mxGeometry y="150" width="140" height="30" as="geometry"/>
                </mxCell>
                <mxCell id="22" value="&lt;b&gt;&lt;font color=&quot;#d2ab11&quot;&gt;Sponsors&lt;/font&gt;&lt;/b&gt;" style="swimlane;fontStyle=0;childLayout=stackLayout;horizontal=1;startSize=30;horizontalStack=0;resizeParent=1;resizeParentMax=0;resizeLast=0;collapsible=1;marginBottom=0;whiteSpace=wrap;html=1;" parent="1" vertex="1">
                    <mxGeometry x="910" y="10" width="140" height="180" as="geometry"/>
                </mxCell>
                <mxCell id="23" value="id_sponsor" style="text;align=left;verticalAlign=middle;spacingLeft=4;spacingRight=4;overflow=hidden;points=[[0,0.5],[1,0.5]];portConstraint=eastwest;rotatable=0;whiteSpace=wrap;html=1;fillColor=none;strokeWidth=10;" parent="22" vertex="1">
                    <mxGeometry y="30" width="140" height="30" as="geometry"/>
                </mxCell>
                <mxCell id="24" value="nom_d'entreprise" style="text;strokeColor=none;fillColor=none;align=left;verticalAlign=middle;spacingLeft=4;spacingRight=4;overflow=hidden;points=[[0,0.5],[1,0.5]];portConstraint=eastwest;rotatable=0;whiteSpace=wrap;html=1;strokeWidth=8;" parent="22" vertex="1">
                    <mxGeometry y="60" width="140" height="30" as="geometry"/>
                </mxCell>
                <mxCell id="25" value="budget" style="text;strokeColor=none;fillColor=none;align=left;verticalAlign=middle;spacingLeft=4;spacingRight=4;overflow=hidden;points=[[0,0.5],[1,0.5]];portConstraint=eastwest;rotatable=0;whiteSpace=wrap;html=1;" parent="22" vertex="1">
                    <mxGeometry y="90" width="140" height="30" as="geometry"/>
                </mxCell>
                <mxCell id="26" value="Type_de_pack_choisis" style="text;strokeColor=none;fillColor=none;align=left;verticalAlign=middle;spacingLeft=4;spacingRight=4;overflow=hidden;points=[[0,0.5],[1,0.5]];portConstraint=eastwest;rotatable=0;whiteSpace=wrap;html=1;" parent="22" vertex="1">
                    <mxGeometry y="120" width="140" height="30" as="geometry"/>
                </mxCell>
                <mxCell id="27" value="numero_des_tickets_restés" style="text;strokeColor=none;fillColor=none;align=left;verticalAlign=middle;spacingLeft=4;spacingRight=4;overflow=hidden;points=[[0,0.5],[1,0.5]];portConstraint=eastwest;rotatable=0;whiteSpace=wrap;html=1;" parent="22" vertex="1">
                    <mxGeometry y="150" width="140" height="30" as="geometry"/>
                </mxCell>
                <mxCell id="28" value="&lt;b&gt;&lt;font color=&quot;#d2ab11&quot;&gt;Organisateurs&lt;/font&gt;&lt;/b&gt;" style="swimlane;fontStyle=0;childLayout=stackLayout;horizontal=1;startSize=30;horizontalStack=0;resizeParent=1;resizeParentMax=0;resizeLast=0;collapsible=1;marginBottom=0;whiteSpace=wrap;html=1;" parent="1" vertex="1">
                    <mxGeometry x="100" y="50" width="140" height="150" as="geometry"/>
                </mxCell>
                <mxCell id="29" value="id_org" style="text;align=left;verticalAlign=middle;spacingLeft=4;spacingRight=4;overflow=hidden;points=[[0,0.5],[1,0.5]];portConstraint=eastwest;rotatable=0;whiteSpace=wrap;html=1;fillColor=none;strokeWidth=10;" parent="28" vertex="1">
                    <mxGeometry y="30" width="140" height="30" as="geometry"/>
                </mxCell>
                <mxCell id="30" value="nom" style="text;strokeColor=none;fillColor=none;align=left;verticalAlign=middle;spacingLeft=4;spacingRight=4;overflow=hidden;points=[[0,0.5],[1,0.5]];portConstraint=eastwest;rotatable=0;whiteSpace=wrap;html=1;strokeWidth=8;" parent="28" vertex="1">
                    <mxGeometry y="60" width="140" height="30" as="geometry"/>
                </mxCell>
                <mxCell id="32" value="cin" style="text;strokeColor=none;fillColor=none;align=left;verticalAlign=middle;spacingLeft=4;spacingRight=4;overflow=hidden;points=[[0,0.5],[1,0.5]];portConstraint=eastwest;rotatable=0;whiteSpace=wrap;html=1;" parent="28" vertex="1">
                    <mxGeometry y="90" width="140" height="30" as="geometry"/>
                </mxCell>
                <mxCell id="33" value="année_d'exp" style="text;strokeColor=none;fillColor=none;align=left;verticalAlign=middle;spacingLeft=4;spacingRight=4;overflow=hidden;points=[[0,0.5],[1,0.5]];portConstraint=eastwest;rotatable=0;whiteSpace=wrap;html=1;" parent="28" vertex="1">
                    <mxGeometry y="120" width="140" height="30" as="geometry"/>
                </mxCell>
                <mxCell id="34" value="&lt;b&gt;&lt;font color=&quot;#d2ab11&quot;&gt;Lieu_d'evenement&lt;/font&gt;&lt;/b&gt;" style="swimlane;fontStyle=0;childLayout=stackLayout;horizontal=1;startSize=30;horizontalStack=0;resizeParent=1;resizeParentMax=0;resizeLast=0;collapsible=1;marginBottom=0;whiteSpace=wrap;html=1;" parent="1" vertex="1">
                    <mxGeometry x="700" y="820" width="140" height="120" as="geometry"/>
                </mxCell>
                <mxCell id="35" value="id_lieu" style="text;align=left;verticalAlign=middle;spacingLeft=4;spacingRight=4;overflow=hidden;points=[[0,0.5],[1,0.5]];portConstraint=eastwest;rotatable=0;whiteSpace=wrap;html=1;fillColor=none;strokeWidth=10;" parent="34" vertex="1">
                    <mxGeometry y="30" width="140" height="30" as="geometry"/>
                </mxCell>
                <mxCell id="36" value="ville" style="text;strokeColor=none;fillColor=none;align=left;verticalAlign=middle;spacingLeft=4;spacingRight=4;overflow=hidden;points=[[0,0.5],[1,0.5]];portConstraint=eastwest;rotatable=0;whiteSpace=wrap;html=1;strokeWidth=8;" parent="34" vertex="1">
                    <mxGeometry y="60" width="140" height="30" as="geometry"/>
                </mxCell>
                <mxCell id="37" value="addresse" style="text;strokeColor=none;fillColor=none;align=left;verticalAlign=middle;spacingLeft=4;spacingRight=4;overflow=hidden;points=[[0,0.5],[1,0.5]];portConstraint=eastwest;rotatable=0;whiteSpace=wrap;html=1;" parent="34" vertex="1">
                    <mxGeometry y="90" width="140" height="30" as="geometry"/>
                </mxCell>
                <mxCell id="40" value="&lt;font color=&quot;#d2ab11&quot;&gt;&lt;b&gt;participant&lt;/b&gt;&lt;/font&gt;" style="swimlane;fontStyle=0;childLayout=stackLayout;horizontal=1;startSize=30;horizontalStack=0;resizeParent=1;resizeParentMax=0;resizeLast=0;collapsible=1;marginBottom=0;whiteSpace=wrap;html=1;" parent="1" vertex="1">
                    <mxGeometry x="50" y="1000" width="140" height="120" as="geometry"/>
                </mxCell>
                <mxCell id="41" value="id_participant" style="text;align=left;verticalAlign=middle;spacingLeft=4;spacingRight=4;overflow=hidden;points=[[0,0.5],[1,0.5]];portConstraint=eastwest;rotatable=0;whiteSpace=wrap;html=1;fillColor=none;strokeWidth=10;" parent="40" vertex="1">
                    <mxGeometry y="30" width="140" height="30" as="geometry"/>
                </mxCell>
                <mxCell id="42" value="nom" style="text;strokeColor=none;fillColor=none;align=left;verticalAlign=middle;spacingLeft=4;spacingRight=4;overflow=hidden;points=[[0,0.5],[1,0.5]];portConstraint=eastwest;rotatable=0;whiteSpace=wrap;html=1;strokeWidth=8;" parent="40" vertex="1">
                    <mxGeometry y="60" width="140" height="30" as="geometry"/>
                </mxCell>
                <mxCell id="43" value="age" style="text;strokeColor=none;fillColor=none;align=left;verticalAlign=middle;spacingLeft=4;spacingRight=4;overflow=hidden;points=[[0,0.5],[1,0.5]];portConstraint=eastwest;rotatable=0;whiteSpace=wrap;html=1;" parent="40" vertex="1">
                    <mxGeometry y="90" width="140" height="30" as="geometry"/>
                </mxCell>
                <mxCell id="45" value="&lt;font color=&quot;#d2ab11&quot;&gt;&lt;b&gt;Billets&lt;/b&gt;&lt;/font&gt;" style="swimlane;fontStyle=0;childLayout=stackLayout;horizontal=1;startSize=30;horizontalStack=0;resizeParent=1;resizeParentMax=0;resizeLast=0;collapsible=1;marginBottom=0;whiteSpace=wrap;html=1;" parent="1" vertex="1">
                    <mxGeometry x="-280" y="590" width="140" height="150" as="geometry"/>
                </mxCell>
                <mxCell id="46" value="id-billets" style="text;align=left;verticalAlign=middle;spacingLeft=4;spacingRight=4;overflow=hidden;points=[[0,0.5],[1,0.5]];portConstraint=eastwest;rotatable=0;whiteSpace=wrap;html=1;fillColor=none;strokeWidth=10;" parent="45" vertex="1">
                    <mxGeometry y="30" width="140" height="30" as="geometry"/>
                </mxCell>
                <mxCell id="47" value="nom-d'event" style="text;strokeColor=none;fillColor=none;align=left;verticalAlign=middle;spacingLeft=4;spacingRight=4;overflow=hidden;points=[[0,0.5],[1,0.5]];portConstraint=eastwest;rotatable=0;whiteSpace=wrap;html=1;strokeWidth=8;" parent="45" vertex="1">
                    <mxGeometry y="60" width="140" height="30" as="geometry"/>
                </mxCell>
                <mxCell id="48" value="date_de_participation" style="text;strokeColor=none;fillColor=none;align=left;verticalAlign=middle;spacingLeft=4;spacingRight=4;overflow=hidden;points=[[0,0.5],[1,0.5]];portConstraint=eastwest;rotatable=0;whiteSpace=wrap;html=1;" parent="45" vertex="1">
                    <mxGeometry y="90" width="140" height="30" as="geometry"/>
                </mxCell>
                <mxCell id="49" value="prix" style="text;strokeColor=none;fillColor=none;align=left;verticalAlign=middle;spacingLeft=4;spacingRight=4;overflow=hidden;points=[[0,0.5],[1,0.5]];portConstraint=eastwest;rotatable=0;whiteSpace=wrap;html=1;" parent="45" vertex="1">
                    <mxGeometry y="120" width="140" height="30" as="geometry"/>
                </mxCell>
                <mxCell id="55" value="" style="group;rotation=-45;" parent="1" vertex="1" connectable="0">
                    <mxGeometry x="257.27" y="260" width="110.71" height="103.64" as="geometry"/>
                </mxCell>
                <mxCell id="53" value="" style="ellipse;whiteSpace=wrap;html=1;strokeWidth=0;rotation=0;" parent="55" vertex="1">
                    <mxGeometry x="8" y="33" width="70.76854773762706" height="47.74895360532745" as="geometry"/>
                </mxCell>
                <mxCell id="108" value="&lt;font color=&quot;#ffffff&quot;&gt;Organiser&lt;br&gt;&lt;/font&gt;" style="text;html=1;strokeColor=none;fillColor=none;align=center;verticalAlign=middle;whiteSpace=wrap;rounded=0;strokeWidth=0;fontColor=#D2AB11;rotation=0;" parent="55" vertex="1">
                    <mxGeometry x="13.380000000000052" y="41.870000000000005" width="60" height="30" as="geometry"/>
                </mxCell>
                <mxCell id="56" value="" style="group;rotation=-45;" parent="1" vertex="1" connectable="0">
                    <mxGeometry x="720" y="300" width="102.21000000000004" height="82.72" as="geometry"/>
                </mxCell>
                <mxCell id="57" value="" style="ellipse;whiteSpace=wrap;html=1;strokeWidth=0;rotation=0;" parent="56" vertex="1">
                    <mxGeometry x="29" y="13" width="86.42416214502246" height="45.49367895313983" as="geometry"/>
                </mxCell>
                <mxCell id="59" value="&lt;font color=&quot;#ffffff&quot;&gt;Sponsoring&lt;br&gt;&lt;/font&gt;" style="text;html=1;strokeColor=none;fillColor=none;align=center;verticalAlign=middle;whiteSpace=wrap;rounded=0;strokeWidth=0;fontColor=#D2AB11;rotation=0;" parent="56" vertex="1">
                    <mxGeometry x="42.210000000000036" y="20.75" width="60" height="30" as="geometry"/>
                </mxCell>
                <mxCell id="63" value="" style="group;rotation=-45;" parent="1" vertex="1" connectable="0">
                    <mxGeometry x="-110" y="838.1800000000001" width="105.92758543259905" height="83.64" as="geometry"/>
                </mxCell>
                <mxCell id="75" value="" style="group" parent="63" vertex="1" connectable="0">
                    <mxGeometry x="25" y="10" width="80.92758543259905" height="45.99965313878887" as="geometry"/>
                </mxCell>
                <mxCell id="64" value="" style="ellipse;whiteSpace=wrap;html=1;strokeWidth=0;rotation=0;" parent="75" vertex="1">
                    <mxGeometry width="80.92758543259905" height="45.99965313878887" as="geometry"/>
                </mxCell>
                <mxCell id="65" value="&lt;font color=&quot;#ffffff&quot;&gt;Acheter&lt;br&gt;&lt;/font&gt;" style="text;html=1;strokeColor=none;fillColor=none;align=center;verticalAlign=middle;whiteSpace=wrap;rounded=0;strokeWidth=0;fontColor=#D2AB11;rotation=0;" parent="75" vertex="1">
                    <mxGeometry x="12.37" y="7.83" width="56.184000000000005" height="30.333655705996133" as="geometry"/>
                </mxCell>
                <mxCell id="96" value="" style="endArrow=none;html=1;fontColor=#FFFFFF;entryX=0.039;entryY=0.693;entryDx=0;entryDy=0;entryPerimeter=0;" parent="63" target="64" edge="1">
                    <mxGeometry width="50" height="50" relative="1" as="geometry">
                        <mxPoint x="-100" y="41.819999999999936" as="sourcePoint"/>
                        <mxPoint x="25.000000000000455" y="41.82000000000005" as="targetPoint"/>
                    </mxGeometry>
                </mxCell>
                <mxCell id="67" value="" style="ellipse;whiteSpace=wrap;html=1;strokeWidth=0;rotation=0;" parent="1" vertex="1">
                    <mxGeometry x="569.0702478990308" y="660.0049301524641" width="80.92758543259905" height="45.99965313878887" as="geometry"/>
                </mxCell>
                <mxCell id="69" value="" style="endArrow=none;html=1;fontColor=#FFFFFF;" parent="1" edge="1">
                    <mxGeometry width="50" height="50" relative="1" as="geometry">
                        <mxPoint x="770" y="690" as="sourcePoint"/>
                        <mxPoint x="770" y="820" as="targetPoint"/>
                    </mxGeometry>
                </mxCell>
                <mxCell id="70" value="" style="endArrow=none;html=1;fontColor=#FFFFFF;" parent="1" edge="1">
                    <mxGeometry width="50" height="50" relative="1" as="geometry">
                        <mxPoint x="650" y="690" as="sourcePoint"/>
                        <mxPoint x="770" y="690" as="targetPoint"/>
                    </mxGeometry>
                </mxCell>
                <mxCell id="71" value="" style="endArrow=none;html=1;fontColor=#FFFFFF;" parent="1" edge="1">
                    <mxGeometry width="50" height="50" relative="1" as="geometry">
                        <mxPoint x="469.07" y="690" as="sourcePoint"/>
                        <mxPoint x="569.07" y="690" as="targetPoint"/>
                        <Array as="points">
                            <mxPoint x="559.07" y="690"/>
                        </Array>
                    </mxGeometry>
                </mxCell>
                <mxCell id="72" value="" style="endArrow=none;html=1;fontColor=#FFFFFF;entryX=0.501;entryY=1.032;entryDx=0;entryDy=0;entryPerimeter=0;" parent="1" target="16" edge="1">
                    <mxGeometry width="50" height="50" relative="1" as="geometry">
                        <mxPoint x="470" y="690" as="sourcePoint"/>
                        <mxPoint x="495" y="640" as="targetPoint"/>
                    </mxGeometry>
                </mxCell>
                <mxCell id="77" value="" style="endArrow=none;html=1;fontColor=#FFFFFF;" parent="1" edge="1">
                    <mxGeometry width="50" height="50" relative="1" as="geometry">
                        <mxPoint x="170" y="320" as="sourcePoint"/>
                        <mxPoint x="170" y="200" as="targetPoint"/>
                    </mxGeometry>
                </mxCell>
                <mxCell id="78" value="" style="endArrow=none;html=1;fontColor=#FFFFFF;" parent="1" edge="1">
                    <mxGeometry width="50" height="50" relative="1" as="geometry">
                        <mxPoint x="170" y="320" as="sourcePoint"/>
                        <mxPoint x="270" y="320" as="targetPoint"/>
                    </mxGeometry>
                </mxCell>
                <mxCell id="80" value="" style="endArrow=none;html=1;fontColor=#FFFFFF;" parent="1" edge="1">
                    <mxGeometry width="50" height="50" relative="1" as="geometry">
                        <mxPoint x="340" y="320" as="sourcePoint"/>
                        <mxPoint x="460" y="320" as="targetPoint"/>
                        <Array as="points"/>
                    </mxGeometry>
                </mxCell>
                <mxCell id="82" value="" style="endArrow=none;html=1;fontColor=#FFFFFF;" parent="1" edge="1">
                    <mxGeometry width="50" height="50" relative="1" as="geometry">
                        <mxPoint x="459" y="440" as="sourcePoint"/>
                        <mxPoint x="459" y="320" as="targetPoint"/>
                    </mxGeometry>
                </mxCell>
                <mxCell id="83" value="" style="endArrow=none;html=1;fontColor=#FFFFFF;entryX=0.01;entryY=0.326;entryDx=0;entryDy=0;entryPerimeter=0;" parent="1" target="26" edge="1">
                    <mxGeometry width="50" height="50" relative="1" as="geometry">
                        <mxPoint x="780" y="140" as="sourcePoint"/>
                        <mxPoint x="890" y="200" as="targetPoint"/>
                    </mxGeometry>
                </mxCell>
                <mxCell id="84" value="" style="endArrow=none;html=1;fontColor=#FFFFFF;exitX=0.348;exitY=0.009;exitDx=0;exitDy=0;exitPerimeter=0;" parent="1" source="57" edge="1">
                    <mxGeometry width="50" height="50" relative="1" as="geometry">
                        <mxPoint x="780" y="300" as="sourcePoint"/>
                        <mxPoint x="780" y="140" as="targetPoint"/>
                    </mxGeometry>
                </mxCell>
                <mxCell id="86" value="" style="endArrow=none;html=1;fontColor=#FFFFFF;" parent="1" edge="1">
                    <mxGeometry width="50" height="50" relative="1" as="geometry">
                        <mxPoint x="780" y="480" as="sourcePoint"/>
                        <mxPoint x="780" y="360" as="targetPoint"/>
                    </mxGeometry>
                </mxCell>
                <mxCell id="87" value="" style="endArrow=none;html=1;fontColor=#FFFFFF;exitX=1.007;exitY=0.256;exitDx=0;exitDy=0;exitPerimeter=0;" parent="1" source="12" edge="1">
                    <mxGeometry width="50" height="50" relative="1" as="geometry">
                        <mxPoint x="550" y="480" as="sourcePoint"/>
                        <mxPoint x="780" y="480" as="targetPoint"/>
                        <Array as="points"/>
                    </mxGeometry>
                </mxCell>
                <mxCell id="93" value="" style="endArrow=none;html=1;fontColor=#FFFFFF;" parent="1" edge="1">
                    <mxGeometry width="50" height="50" relative="1" as="geometry">
                        <mxPoint x="118.88999999999999" y="1000.0000000000002" as="sourcePoint"/>
                        <mxPoint x="118.88999999999999" y="880.0000000000002" as="targetPoint"/>
                    </mxGeometry>
                </mxCell>
                <mxCell id="95" value="" style="endArrow=none;html=1;fontColor=#FFFFFF;exitX=0.974;exitY=0.665;exitDx=0;exitDy=0;exitPerimeter=0;" parent="1" source="64" edge="1">
                    <mxGeometry width="50" height="50" relative="1" as="geometry">
                        <mxPoint x="4.547473508864641e-13" y="878.89" as="sourcePoint"/>
                        <mxPoint x="120.00000000000045" y="878.89" as="targetPoint"/>
                    </mxGeometry>
                </mxCell>
                <mxCell id="98" value="" style="endArrow=none;html=1;fontColor=#FFFFFF;" parent="1" edge="1">
                    <mxGeometry width="50" height="50" relative="1" as="geometry">
                        <mxPoint x="-210.4500000000001" y="880.0000000000002" as="sourcePoint"/>
                        <mxPoint x="-210" y="740" as="targetPoint"/>
                    </mxGeometry>
                </mxCell>
                <mxCell id="99" value="" style="endArrow=none;html=1;fontColor=#FFFFFF;" parent="1" edge="1">
                    <mxGeometry width="50" height="50" relative="1" as="geometry">
                        <mxPoint x="160" y="1000" as="sourcePoint"/>
                        <mxPoint x="160" y="790" as="targetPoint"/>
                    </mxGeometry>
                </mxCell>
                <mxCell id="100" value="&lt;font color=&quot;#ffffff&quot;&gt;Participer&lt;br&gt;&lt;/font&gt;" style="text;html=1;strokeColor=none;fillColor=none;align=center;verticalAlign=middle;whiteSpace=wrap;rounded=0;strokeWidth=0;fontColor=#D2AB11;rotation=0;" parent="1" vertex="1">
                    <mxGeometry x="133.82" y="747.84" width="56.184000000000005" height="30.333655705996133" as="geometry"/>
                </mxCell>
                <mxCell id="104" value="" style="endArrow=none;html=1;fontColor=#FFFFFF;" parent="1" edge="1">
                    <mxGeometry width="50" height="50" relative="1" as="geometry">
                        <mxPoint x="161.07999999999993" y="740.0000000000002" as="sourcePoint"/>
                        <mxPoint x="161.52999999999997" y="600" as="targetPoint"/>
                    </mxGeometry>
                </mxCell>
                <mxCell id="105" value="" style="endArrow=none;html=1;fontColor=#FFFFFF;exitX=1.007;exitY=0.256;exitDx=0;exitDy=0;exitPerimeter=0;" parent="1" edge="1">
                    <mxGeometry width="50" height="50" relative="1" as="geometry">
                        <mxPoint x="160.98000000000002" y="599.9999999999998" as="sourcePoint"/>
                        <mxPoint x="400" y="602.3199999999999" as="targetPoint"/>
                        <Array as="points"/>
                    </mxGeometry>
                </mxCell>
                <mxCell id="106" value="&lt;font color=&quot;#ffffff&quot;&gt;placer&lt;br&gt;&lt;/font&gt;" style="text;html=1;strokeColor=none;fillColor=none;align=center;verticalAlign=middle;whiteSpace=wrap;rounded=0;strokeWidth=0;fontColor=#D2AB11;rotation=0;" parent="1" vertex="1">
                    <mxGeometry x="581.44" y="667.84" width="56.184000000000005" height="30.333655705996133" as="geometry"/>
                </mxCell>
                <mxCell id="109" value="1,&amp;nbsp; N" style="text;html=1;strokeColor=none;fillColor=none;align=center;verticalAlign=middle;whiteSpace=wrap;rounded=0;strokeWidth=0;fontColor=#FFFFFF;" parent="1" vertex="1">
                    <mxGeometry x="170" y="210" width="60" height="30" as="geometry"/>
                </mxCell>
                <mxCell id="110" value="1,&amp;nbsp; N" style="text;html=1;strokeColor=none;fillColor=none;align=center;verticalAlign=middle;whiteSpace=wrap;rounded=0;strokeWidth=0;fontColor=#FFFFFF;" parent="1" vertex="1">
                    <mxGeometry x="460" y="400" width="60" height="30" as="geometry"/>
                </mxCell>
                <mxCell id="111" value="1,&amp;nbsp; N" style="text;html=1;strokeColor=none;fillColor=none;align=center;verticalAlign=middle;whiteSpace=wrap;rounded=0;strokeWidth=0;fontColor=#FFFFFF;" parent="1" vertex="1">
                    <mxGeometry x="840" y="100" width="60" height="30" as="geometry"/>
                </mxCell>
                <mxCell id="112" value="1,&amp;nbsp; N" style="text;html=1;strokeColor=none;fillColor=none;align=center;verticalAlign=middle;whiteSpace=wrap;rounded=0;strokeWidth=0;fontColor=#FFFFFF;" parent="1" vertex="1">
                    <mxGeometry x="550" y="440" width="60" height="30" as="geometry"/>
                </mxCell>
                <mxCell id="113" value="1, 1" style="text;html=1;strokeColor=none;fillColor=none;align=center;verticalAlign=middle;whiteSpace=wrap;rounded=0;strokeWidth=0;fontColor=#FFFFFF;" parent="1" vertex="1">
                    <mxGeometry x="470" y="630" width="60" height="30" as="geometry"/>
                </mxCell>
                <mxCell id="114" value="1, N" style="text;html=1;strokeColor=none;fillColor=none;align=center;verticalAlign=middle;whiteSpace=wrap;rounded=0;strokeWidth=0;fontColor=#FFFFFF;" parent="1" vertex="1">
                    <mxGeometry x="771" y="778.17" width="60" height="30" as="geometry"/>
                </mxCell>
                <mxCell id="115" value="1, 1" style="text;html=1;strokeColor=none;fillColor=none;align=center;verticalAlign=middle;whiteSpace=wrap;rounded=0;strokeWidth=0;fontColor=#FFFFFF;" parent="1" vertex="1">
                    <mxGeometry x="-210" y="748.17" width="60" height="30" as="geometry"/>
                </mxCell>
                <mxCell id="116" value="1, 1" style="text;html=1;strokeColor=none;fillColor=none;align=center;verticalAlign=middle;whiteSpace=wrap;rounded=0;strokeWidth=0;fontColor=#FFFFFF;" parent="1" vertex="1">
                    <mxGeometry x="60" y="960" width="60" height="30" as="geometry"/>
                </mxCell>
                <mxCell id="117" value="1, 1" style="text;html=1;strokeColor=none;fillColor=none;align=center;verticalAlign=middle;whiteSpace=wrap;rounded=0;strokeWidth=0;fontColor=#FFFFFF;" parent="1" vertex="1">
                    <mxGeometry x="160" y="960" width="60" height="30" as="geometry"/>
                </mxCell>
                <mxCell id="118" value="1, N" style="text;html=1;strokeColor=none;fillColor=none;align=center;verticalAlign=middle;whiteSpace=wrap;rounded=0;strokeWidth=0;fontColor=#FFFFFF;" parent="1" vertex="1">
                    <mxGeometry x="330" y="570" width="60" height="30" as="geometry"/>
                </mxCell>
            </root>
        </mxGraphModel>
    </diagram>
    <diagram id="fotg5CokMn7uYQUF0vHG" name="MLD">
        <mxGraphModel dx="1223" dy="610" grid="1" gridSize="10" guides="1" tooltips="1" connect="1" arrows="1" fold="1" page="0" pageScale="1" pageWidth="850" pageHeight="1100" math="0" shadow="0">
            <root>
                <mxCell id="0"/>
                <mxCell id="1" parent="0"/>
                <mxCell id="xIzZ9h9AH1w-tKXrf8BA-2" value="&lt;b&gt;&lt;font color=&quot;#d2ab11&quot;&gt;evenement&lt;/font&gt;&lt;/b&gt;" style="swimlane;fontStyle=0;childLayout=stackLayout;horizontal=1;startSize=30;horizontalStack=0;resizeParent=1;resizeParentMax=0;resizeLast=0;collapsible=1;marginBottom=0;whiteSpace=wrap;html=1;" parent="1" vertex="1">
                    <mxGeometry x="400" y="440" width="140" height="210" as="geometry"/>
                </mxCell>
                <mxCell id="LQebW2Mpe9o4gzpwTiE0-25" value="" style="endArrow=none;html=1;fontColor=#FFFFFF;" parent="xIzZ9h9AH1w-tKXrf8BA-2" edge="1">
                    <mxGeometry width="50" height="50" relative="1" as="geometry">
                        <mxPoint x="-2.2737367544323206e-13" y="50.000000000000114" as="sourcePoint"/>
                        <mxPoint x="60" y="50" as="targetPoint"/>
                    </mxGeometry>
                </mxCell>
                <mxCell id="xIzZ9h9AH1w-tKXrf8BA-3" value="id" style="text;align=left;verticalAlign=middle;spacingLeft=4;spacingRight=4;overflow=hidden;points=[[0,0.5],[1,0.5]];portConstraint=eastwest;rotatable=0;whiteSpace=wrap;html=1;fillColor=none;strokeWidth=10;" parent="xIzZ9h9AH1w-tKXrf8BA-2" vertex="1">
                    <mxGeometry y="30" width="140" height="30" as="geometry"/>
                </mxCell>
                <mxCell id="xIzZ9h9AH1w-tKXrf8BA-4" value="titre" style="text;strokeColor=none;fillColor=none;align=left;verticalAlign=middle;spacingLeft=4;spacingRight=4;overflow=hidden;points=[[0,0.5],[1,0.5]];portConstraint=eastwest;rotatable=0;whiteSpace=wrap;html=1;strokeWidth=8;" parent="xIzZ9h9AH1w-tKXrf8BA-2" vertex="1">
                    <mxGeometry y="60" width="140" height="30" as="geometry"/>
                </mxCell>
                <mxCell id="xIzZ9h9AH1w-tKXrf8BA-5" value="date_event" style="text;strokeColor=none;fillColor=none;align=left;verticalAlign=middle;spacingLeft=4;spacingRight=4;overflow=hidden;points=[[0,0.5],[1,0.5]];portConstraint=eastwest;rotatable=0;whiteSpace=wrap;html=1;" parent="xIzZ9h9AH1w-tKXrf8BA-2" vertex="1">
                    <mxGeometry y="90" width="140" height="30" as="geometry"/>
                </mxCell>
                <mxCell id="xIzZ9h9AH1w-tKXrf8BA-6" value="lieu" style="text;strokeColor=none;fillColor=none;align=left;verticalAlign=middle;spacingLeft=4;spacingRight=4;overflow=hidden;points=[[0,0.5],[1,0.5]];portConstraint=eastwest;rotatable=0;whiteSpace=wrap;html=1;" parent="xIzZ9h9AH1w-tKXrf8BA-2" vertex="1">
                    <mxGeometry y="120" width="140" height="30" as="geometry"/>
                </mxCell>
                <mxCell id="xIzZ9h9AH1w-tKXrf8BA-7" value="numero_des_tickets_restés" style="text;strokeColor=none;fillColor=none;align=left;verticalAlign=middle;spacingLeft=4;spacingRight=4;overflow=hidden;points=[[0,0.5],[1,0.5]];portConstraint=eastwest;rotatable=0;whiteSpace=wrap;html=1;" parent="xIzZ9h9AH1w-tKXrf8BA-2" vertex="1">
                    <mxGeometry y="150" width="140" height="30" as="geometry"/>
                </mxCell>
                <mxCell id="LQebW2Mpe9o4gzpwTiE0-22" value="#lieu_id" style="text;strokeColor=none;fillColor=none;align=left;verticalAlign=middle;spacingLeft=4;spacingRight=4;overflow=hidden;points=[[0,0.5],[1,0.5]];portConstraint=eastwest;rotatable=0;whiteSpace=wrap;html=1;" parent="xIzZ9h9AH1w-tKXrf8BA-2" vertex="1">
                    <mxGeometry y="180" width="140" height="30" as="geometry"/>
                </mxCell>
                <mxCell id="xIzZ9h9AH1w-tKXrf8BA-8" value="&lt;b&gt;&lt;font color=&quot;#d2ab11&quot;&gt;sponsors&lt;/font&gt;&lt;/b&gt;" style="swimlane;fontStyle=0;childLayout=stackLayout;horizontal=1;startSize=30;horizontalStack=0;resizeParent=1;resizeParentMax=0;resizeLast=0;collapsible=1;marginBottom=0;whiteSpace=wrap;html=1;" parent="1" vertex="1">
                    <mxGeometry x="910" y="10" width="140" height="150" as="geometry"/>
                </mxCell>
                <mxCell id="xIzZ9h9AH1w-tKXrf8BA-9" value="id" style="text;align=left;verticalAlign=middle;spacingLeft=4;spacingRight=4;overflow=hidden;points=[[0,0.5],[1,0.5]];portConstraint=eastwest;rotatable=0;whiteSpace=wrap;html=1;fillColor=none;strokeWidth=10;" parent="xIzZ9h9AH1w-tKXrf8BA-8" vertex="1">
                    <mxGeometry y="30" width="140" height="30" as="geometry"/>
                </mxCell>
                <mxCell id="LQebW2Mpe9o4gzpwTiE0-27" value="" style="endArrow=none;html=1;fontColor=#FFFFFF;" parent="xIzZ9h9AH1w-tKXrf8BA-8" edge="1">
                    <mxGeometry width="50" height="50" relative="1" as="geometry">
                        <mxPoint y="58.56999999999999" as="sourcePoint"/>
                        <mxPoint x="90" y="58.56999999999999" as="targetPoint"/>
                        <Array as="points">
                            <mxPoint x="40" y="58.56999999999999"/>
                        </Array>
                    </mxGeometry>
                </mxCell>
                <mxCell id="xIzZ9h9AH1w-tKXrf8BA-10" value="nom_dentreprise" style="text;strokeColor=none;fillColor=none;align=left;verticalAlign=middle;spacingLeft=4;spacingRight=4;overflow=hidden;points=[[0,0.5],[1,0.5]];portConstraint=eastwest;rotatable=0;whiteSpace=wrap;html=1;strokeWidth=8;" parent="xIzZ9h9AH1w-tKXrf8BA-8" vertex="1">
                    <mxGeometry y="60" width="140" height="30" as="geometry"/>
                </mxCell>
                <mxCell id="xIzZ9h9AH1w-tKXrf8BA-11" value="budget" style="text;strokeColor=none;fillColor=none;align=left;verticalAlign=middle;spacingLeft=4;spacingRight=4;overflow=hidden;points=[[0,0.5],[1,0.5]];portConstraint=eastwest;rotatable=0;whiteSpace=wrap;html=1;" parent="xIzZ9h9AH1w-tKXrf8BA-8" vertex="1">
                    <mxGeometry y="90" width="140" height="30" as="geometry"/>
                </mxCell>
                <mxCell id="xIzZ9h9AH1w-tKXrf8BA-12" value="Type_de_pack_choisis" style="text;strokeColor=none;fillColor=none;align=left;verticalAlign=middle;spacingLeft=4;spacingRight=4;overflow=hidden;points=[[0,0.5],[1,0.5]];portConstraint=eastwest;rotatable=0;whiteSpace=wrap;html=1;" parent="xIzZ9h9AH1w-tKXrf8BA-8" vertex="1">
                    <mxGeometry y="120" width="140" height="30" as="geometry"/>
                </mxCell>
                <mxCell id="xIzZ9h9AH1w-tKXrf8BA-14" value="&lt;b&gt;&lt;font color=&quot;#d2ab11&quot;&gt;organisateur&lt;/font&gt;&lt;/b&gt;" style="swimlane;fontStyle=0;childLayout=stackLayout;horizontal=1;startSize=30;horizontalStack=0;resizeParent=1;resizeParentMax=0;resizeLast=0;collapsible=1;marginBottom=0;whiteSpace=wrap;html=1;" parent="1" vertex="1">
                    <mxGeometry x="100" y="80" width="140" height="120" as="geometry"/>
                </mxCell>
                <mxCell id="xIzZ9h9AH1w-tKXrf8BA-15" value="id" style="text;align=left;verticalAlign=middle;spacingLeft=4;spacingRight=4;overflow=hidden;points=[[0,0.5],[1,0.5]];portConstraint=eastwest;rotatable=0;whiteSpace=wrap;html=1;fillColor=none;strokeWidth=10;" parent="xIzZ9h9AH1w-tKXrf8BA-14" vertex="1">
                    <mxGeometry y="30" width="140" height="30" as="geometry"/>
                </mxCell>
                <mxCell id="LQebW2Mpe9o4gzpwTiE0-24" value="" style="endArrow=none;html=1;fontColor=#FFFFFF;" parent="xIzZ9h9AH1w-tKXrf8BA-14" edge="1">
                    <mxGeometry width="50" height="50" relative="1" as="geometry">
                        <mxPoint x="-2.2737367544323206e-13" y="50.000000000000114" as="sourcePoint"/>
                        <mxPoint x="50" y="50" as="targetPoint"/>
                    </mxGeometry>
                </mxCell>
                <mxCell id="xIzZ9h9AH1w-tKXrf8BA-16" value="nom" style="text;strokeColor=none;fillColor=none;align=left;verticalAlign=middle;spacingLeft=4;spacingRight=4;overflow=hidden;points=[[0,0.5],[1,0.5]];portConstraint=eastwest;rotatable=0;whiteSpace=wrap;html=1;strokeWidth=8;" parent="xIzZ9h9AH1w-tKXrf8BA-14" vertex="1">
                    <mxGeometry y="60" width="140" height="30" as="geometry"/>
                </mxCell>
                <mxCell id="xIzZ9h9AH1w-tKXrf8BA-17" value="cin" style="text;strokeColor=none;fillColor=none;align=left;verticalAlign=middle;spacingLeft=4;spacingRight=4;overflow=hidden;points=[[0,0.5],[1,0.5]];portConstraint=eastwest;rotatable=0;whiteSpace=wrap;html=1;" parent="xIzZ9h9AH1w-tKXrf8BA-14" vertex="1">
                    <mxGeometry y="90" width="140" height="30" as="geometry"/>
                </mxCell>
                <mxCell id="xIzZ9h9AH1w-tKXrf8BA-19" value="&lt;b&gt;&lt;font color=&quot;#d2ab11&quot;&gt;lieu_devenement&lt;/font&gt;&lt;/b&gt;" style="swimlane;fontStyle=0;childLayout=stackLayout;horizontal=1;startSize=30;horizontalStack=0;resizeParent=1;resizeParentMax=0;resizeLast=0;collapsible=1;marginBottom=0;whiteSpace=wrap;html=1;" parent="1" vertex="1">
                    <mxGeometry x="700" y="820" width="140" height="120" as="geometry"/>
                </mxCell>
                <mxCell id="xIzZ9h9AH1w-tKXrf8BA-20" value="id" style="text;align=left;verticalAlign=middle;spacingLeft=4;spacingRight=4;overflow=hidden;points=[[0,0.5],[1,0.5]];portConstraint=eastwest;rotatable=0;whiteSpace=wrap;html=1;fillColor=none;strokeWidth=10;" parent="xIzZ9h9AH1w-tKXrf8BA-19" vertex="1">
                    <mxGeometry y="30" width="140" height="30" as="geometry"/>
                </mxCell>
                <mxCell id="LQebW2Mpe9o4gzpwTiE0-26" value="" style="endArrow=none;html=1;fontColor=#FFFFFF;" parent="xIzZ9h9AH1w-tKXrf8BA-19" edge="1">
                    <mxGeometry width="50" height="50" relative="1" as="geometry">
                        <mxPoint x="-2.2737367544323206e-13" y="58.56999999999999" as="sourcePoint"/>
                        <mxPoint x="89.99999999999977" y="58.56999999999999" as="targetPoint"/>
                    </mxGeometry>
                </mxCell>
                <mxCell id="xIzZ9h9AH1w-tKXrf8BA-21" value="ville" style="text;strokeColor=none;fillColor=none;align=left;verticalAlign=middle;spacingLeft=4;spacingRight=4;overflow=hidden;points=[[0,0.5],[1,0.5]];portConstraint=eastwest;rotatable=0;whiteSpace=wrap;html=1;strokeWidth=8;" parent="xIzZ9h9AH1w-tKXrf8BA-19" vertex="1">
                    <mxGeometry y="60" width="140" height="30" as="geometry"/>
                </mxCell>
                <mxCell id="xIzZ9h9AH1w-tKXrf8BA-22" value="addresse" style="text;strokeColor=none;fillColor=none;align=left;verticalAlign=middle;spacingLeft=4;spacingRight=4;overflow=hidden;points=[[0,0.5],[1,0.5]];portConstraint=eastwest;rotatable=0;whiteSpace=wrap;html=1;" parent="xIzZ9h9AH1w-tKXrf8BA-19" vertex="1">
                    <mxGeometry y="90" width="140" height="30" as="geometry"/>
                </mxCell>
                <mxCell id="xIzZ9h9AH1w-tKXrf8BA-23" value="&lt;font color=&quot;#d2ab11&quot;&gt;&lt;b&gt;participant&lt;/b&gt;&lt;/font&gt;" style="swimlane;fontStyle=0;childLayout=stackLayout;horizontal=1;startSize=30;horizontalStack=0;resizeParent=1;resizeParentMax=0;resizeLast=0;collapsible=1;marginBottom=0;whiteSpace=wrap;html=1;" parent="1" vertex="1">
                    <mxGeometry x="50" y="1000" width="140" height="150" as="geometry"/>
                </mxCell>
                <mxCell id="xIzZ9h9AH1w-tKXrf8BA-24" value="id" style="text;align=left;verticalAlign=middle;spacingLeft=4;spacingRight=4;overflow=hidden;points=[[0,0.5],[1,0.5]];portConstraint=eastwest;rotatable=0;whiteSpace=wrap;html=1;fillColor=none;strokeWidth=10;" parent="xIzZ9h9AH1w-tKXrf8BA-23" vertex="1">
                    <mxGeometry y="30" width="140" height="30" as="geometry"/>
                </mxCell>
                <mxCell id="LQebW2Mpe9o4gzpwTiE0-16" value="" style="endArrow=none;html=1;fontColor=#FFFFFF;" parent="xIzZ9h9AH1w-tKXrf8BA-23" edge="1">
                    <mxGeometry width="50" height="50" relative="1" as="geometry">
                        <mxPoint y="50" as="sourcePoint"/>
                        <mxPoint x="90" y="50" as="targetPoint"/>
                    </mxGeometry>
                </mxCell>
                <mxCell id="xIzZ9h9AH1w-tKXrf8BA-25" value="nom" style="text;strokeColor=none;fillColor=none;align=left;verticalAlign=middle;spacingLeft=4;spacingRight=4;overflow=hidden;points=[[0,0.5],[1,0.5]];portConstraint=eastwest;rotatable=0;whiteSpace=wrap;html=1;strokeWidth=8;" parent="xIzZ9h9AH1w-tKXrf8BA-23" vertex="1">
                    <mxGeometry y="60" width="140" height="30" as="geometry"/>
                </mxCell>
                <mxCell id="xIzZ9h9AH1w-tKXrf8BA-26" value="age" style="text;strokeColor=none;fillColor=none;align=left;verticalAlign=middle;spacingLeft=4;spacingRight=4;overflow=hidden;points=[[0,0.5],[1,0.5]];portConstraint=eastwest;rotatable=0;whiteSpace=wrap;html=1;" parent="xIzZ9h9AH1w-tKXrf8BA-23" vertex="1">
                    <mxGeometry y="90" width="140" height="30" as="geometry"/>
                </mxCell>
                <mxCell id="LQebW2Mpe9o4gzpwTiE0-20" value="#id-event" style="text;strokeColor=none;fillColor=none;align=left;verticalAlign=middle;spacingLeft=4;spacingRight=4;overflow=hidden;points=[[0,0.5],[1,0.5]];portConstraint=eastwest;rotatable=0;whiteSpace=wrap;html=1;" parent="xIzZ9h9AH1w-tKXrf8BA-23" vertex="1">
                    <mxGeometry y="120" width="140" height="30" as="geometry"/>
                </mxCell>
                <mxCell id="xIzZ9h9AH1w-tKXrf8BA-27" value="&lt;font color=&quot;#d2ab11&quot;&gt;&lt;b&gt;billet&lt;/b&gt;&lt;/font&gt;" style="swimlane;fontStyle=0;childLayout=stackLayout;horizontal=1;startSize=30;horizontalStack=0;resizeParent=1;resizeParentMax=0;resizeLast=0;collapsible=1;marginBottom=0;whiteSpace=wrap;html=1;" parent="1" vertex="1">
                    <mxGeometry x="-280" y="590" width="140" height="150" as="geometry"/>
                </mxCell>
                <mxCell id="xIzZ9h9AH1w-tKXrf8BA-28" value="id" style="text;align=left;verticalAlign=middle;spacingLeft=4;spacingRight=4;overflow=hidden;points=[[0,0.5],[1,0.5]];portConstraint=eastwest;rotatable=0;whiteSpace=wrap;html=1;fillColor=none;strokeWidth=10;" parent="xIzZ9h9AH1w-tKXrf8BA-27" vertex="1">
                    <mxGeometry y="30" width="140" height="30" as="geometry"/>
                </mxCell>
                <mxCell id="LQebW2Mpe9o4gzpwTiE0-19" value="" style="endArrow=none;html=1;fontColor=#FFFFFF;" parent="xIzZ9h9AH1w-tKXrf8BA-27" edge="1">
                    <mxGeometry width="50" height="50" relative="1" as="geometry">
                        <mxPoint x="-5.684341886080802e-14" y="50" as="sourcePoint"/>
                        <mxPoint x="50" y="50" as="targetPoint"/>
                    </mxGeometry>
                </mxCell>
                <mxCell id="xIzZ9h9AH1w-tKXrf8BA-29" value="nom-devent" style="text;strokeColor=none;fillColor=none;align=left;verticalAlign=middle;spacingLeft=4;spacingRight=4;overflow=hidden;points=[[0,0.5],[1,0.5]];portConstraint=eastwest;rotatable=0;whiteSpace=wrap;html=1;strokeWidth=8;" parent="xIzZ9h9AH1w-tKXrf8BA-27" vertex="1">
                    <mxGeometry y="60" width="140" height="30" as="geometry"/>
                </mxCell>
                <mxCell id="xIzZ9h9AH1w-tKXrf8BA-30" value="date_de_participation" style="text;strokeColor=none;fillColor=none;align=left;verticalAlign=middle;spacingLeft=4;spacingRight=4;overflow=hidden;points=[[0,0.5],[1,0.5]];portConstraint=eastwest;rotatable=0;whiteSpace=wrap;html=1;" parent="xIzZ9h9AH1w-tKXrf8BA-27" vertex="1">
                    <mxGeometry y="90" width="140" height="30" as="geometry"/>
                </mxCell>
                <mxCell id="xIzZ9h9AH1w-tKXrf8BA-31" value="prix" style="text;strokeColor=none;fillColor=none;align=left;verticalAlign=middle;spacingLeft=4;spacingRight=4;overflow=hidden;points=[[0,0.5],[1,0.5]];portConstraint=eastwest;rotatable=0;whiteSpace=wrap;html=1;" parent="xIzZ9h9AH1w-tKXrf8BA-27" vertex="1">
                    <mxGeometry y="120" width="140" height="30" as="geometry"/>
                </mxCell>
                <mxCell id="xIzZ9h9AH1w-tKXrf8BA-38" value="" style="group;rotation=-45;" parent="1" vertex="1" connectable="0">
                    <mxGeometry x="-110" y="838.1800000000001" width="149.99999999999994" height="131.81999999999994" as="geometry"/>
                </mxCell>
                <mxCell id="xIzZ9h9AH1w-tKXrf8BA-42" value="" style="endArrow=none;html=1;fontColor=#FFFFFF;entryX=0.039;entryY=0.693;entryDx=0;entryDy=0;entryPerimeter=0;" parent="xIzZ9h9AH1w-tKXrf8BA-38" edge="1">
                    <mxGeometry width="50" height="50" relative="1" as="geometry">
                        <mxPoint x="-100" y="41.819999999999936" as="sourcePoint"/>
                        <mxPoint x="28.156175831871224" y="41.87775962518049" as="targetPoint"/>
                    </mxGeometry>
                </mxCell>
                <mxCell id="LQebW2Mpe9o4gzpwTiE0-9" value="&lt;b style=&quot;&quot;&gt;&lt;font color=&quot;#2f8e4b&quot;&gt;acheter&lt;/font&gt;&lt;/b&gt;" style="swimlane;fontStyle=0;childLayout=stackLayout;horizontal=1;startSize=30;horizontalStack=0;resizeParent=1;resizeParentMax=0;resizeLast=0;collapsible=1;marginBottom=0;whiteSpace=wrap;html=1;rounded=1;swimlaneLine=1;glass=0;shadow=0;" parent="xIzZ9h9AH1w-tKXrf8BA-38" vertex="1">
                    <mxGeometry x="9.999999999999943" y="11.819999999999936" width="140" height="120" as="geometry"/>
                </mxCell>
                <mxCell id="LQebW2Mpe9o4gzpwTiE0-10" value="id" style="text;align=left;verticalAlign=middle;spacingLeft=4;spacingRight=4;overflow=hidden;points=[[0,0.5],[1,0.5]];portConstraint=eastwest;rotatable=0;whiteSpace=wrap;html=1;fillColor=none;strokeWidth=10;" parent="LQebW2Mpe9o4gzpwTiE0-9" vertex="1">
                    <mxGeometry y="30" width="140" height="30" as="geometry"/>
                </mxCell>
                <mxCell id="LQebW2Mpe9o4gzpwTiE0-11" value="" style="endArrow=none;html=1;fontColor=#FFFFFF;" parent="LQebW2Mpe9o4gzpwTiE0-9" edge="1">
                    <mxGeometry width="50" height="50" relative="1" as="geometry">
                        <mxPoint y="50" as="sourcePoint"/>
                        <mxPoint x="90" y="50" as="targetPoint"/>
                    </mxGeometry>
                </mxCell>
                <mxCell id="LQebW2Mpe9o4gzpwTiE0-12" value="#billet_id" style="text;strokeColor=none;fillColor=none;align=left;verticalAlign=middle;spacingLeft=4;spacingRight=4;overflow=hidden;points=[[0,0.5],[1,0.5]];portConstraint=eastwest;rotatable=0;whiteSpace=wrap;html=1;" parent="LQebW2Mpe9o4gzpwTiE0-9" vertex="1">
                    <mxGeometry y="60" width="140" height="30" as="geometry"/>
                </mxCell>
                <mxCell id="LQebW2Mpe9o4gzpwTiE0-13" value="#participant_id" style="text;strokeColor=none;fillColor=none;align=left;verticalAlign=middle;spacingLeft=4;spacingRight=4;overflow=hidden;points=[[0,0.5],[1,0.5]];portConstraint=eastwest;rotatable=0;whiteSpace=wrap;html=1;" parent="LQebW2Mpe9o4gzpwTiE0-9" vertex="1">
                    <mxGeometry y="90" width="140" height="30" as="geometry"/>
                </mxCell>
                <mxCell id="LQebW2Mpe9o4gzpwTiE0-23" value="" style="endArrow=none;html=1;fontColor=#FFFFFF;" parent="LQebW2Mpe9o4gzpwTiE0-9" edge="1">
                    <mxGeometry width="50" height="50" relative="1" as="geometry">
                        <mxPoint x="-90" y="910" as="sourcePoint"/>
                        <mxPoint y="910" as="targetPoint"/>
                    </mxGeometry>
                </mxCell>
                <mxCell id="LQebW2Mpe9o4gzpwTiE0-34" value="&lt;b style=&quot;&quot;&gt;&lt;font color=&quot;#2f8e4b&quot;&gt;participer&lt;/font&gt;&lt;/b&gt;" style="swimlane;fontStyle=0;childLayout=stackLayout;horizontal=1;startSize=30;horizontalStack=0;resizeParent=1;resizeParentMax=0;resizeLast=0;collapsible=1;marginBottom=0;whiteSpace=wrap;html=1;rounded=1;" parent="xIzZ9h9AH1w-tKXrf8BA-38" vertex="1">
                    <mxGeometry x="209.99999999999994" y="-138.18000000000006" width="140" height="120" as="geometry"/>
                </mxCell>
                <mxCell id="LQebW2Mpe9o4gzpwTiE0-35" value="id" style="text;align=left;verticalAlign=middle;spacingLeft=4;spacingRight=4;overflow=hidden;points=[[0,0.5],[1,0.5]];portConstraint=eastwest;rotatable=0;whiteSpace=wrap;html=1;fillColor=none;strokeWidth=10;" parent="LQebW2Mpe9o4gzpwTiE0-34" vertex="1">
                    <mxGeometry y="30" width="140" height="30" as="geometry"/>
                </mxCell>
                <mxCell id="LQebW2Mpe9o4gzpwTiE0-36" value="" style="endArrow=none;html=1;fontColor=#FFFFFF;" parent="LQebW2Mpe9o4gzpwTiE0-34" edge="1">
                    <mxGeometry width="50" height="50" relative="1" as="geometry">
                        <mxPoint y="50" as="sourcePoint"/>
                        <mxPoint x="90" y="50" as="targetPoint"/>
                    </mxGeometry>
                </mxCell>
                <mxCell id="LQebW2Mpe9o4gzpwTiE0-37" value="#&lt;span style=&quot;text-align: center;&quot;&gt;&lt;font style=&quot;font-size: 11px;&quot; color=&quot;#fbf8ef&quot;&gt;participant_id&lt;/font&gt;&lt;/span&gt;" style="text;strokeColor=none;fillColor=none;align=left;verticalAlign=middle;spacingLeft=4;spacingRight=4;overflow=hidden;points=[[0,0.5],[1,0.5]];portConstraint=eastwest;rotatable=0;whiteSpace=wrap;html=1;" parent="LQebW2Mpe9o4gzpwTiE0-34" vertex="1">
                    <mxGeometry y="60" width="140" height="30" as="geometry"/>
                </mxCell>
                <mxCell id="LQebW2Mpe9o4gzpwTiE0-38" value="&lt;font style=&quot;font-size: 11px;&quot;&gt;#&lt;font style=&quot;font-size: 11px;&quot; color=&quot;#ffffff&quot;&gt;i&lt;span style=&quot;text-align: center;&quot;&gt;evenement_id&lt;/span&gt;&lt;/font&gt;&lt;/font&gt;" style="text;strokeColor=none;fillColor=none;align=left;verticalAlign=middle;spacingLeft=4;spacingRight=4;overflow=hidden;points=[[0,0.5],[1,0.5]];portConstraint=eastwest;rotatable=0;whiteSpace=wrap;html=1;" parent="LQebW2Mpe9o4gzpwTiE0-34" vertex="1">
                    <mxGeometry y="90" width="140" height="30" as="geometry"/>
                </mxCell>
                <mxCell id="LQebW2Mpe9o4gzpwTiE0-39" value="" style="endArrow=none;html=1;fontColor=#FFFFFF;" parent="LQebW2Mpe9o4gzpwTiE0-34" edge="1">
                    <mxGeometry width="50" height="50" relative="1" as="geometry">
                        <mxPoint x="-90" y="910" as="sourcePoint"/>
                        <mxPoint y="910" as="targetPoint"/>
                    </mxGeometry>
                </mxCell>
                <mxCell id="xIzZ9h9AH1w-tKXrf8BA-44" value="" style="endArrow=none;html=1;fontColor=#FFFFFF;" parent="1" edge="1">
                    <mxGeometry width="50" height="50" relative="1" as="geometry">
                        <mxPoint x="770" y="690" as="sourcePoint"/>
                        <mxPoint x="770" y="820" as="targetPoint"/>
                    </mxGeometry>
                </mxCell>
                <mxCell id="xIzZ9h9AH1w-tKXrf8BA-45" value="" style="endArrow=none;html=1;fontColor=#FFFFFF;" parent="1" edge="1">
                    <mxGeometry width="50" height="50" relative="1" as="geometry">
                        <mxPoint x="650" y="690" as="sourcePoint"/>
                        <mxPoint x="770" y="690" as="targetPoint"/>
                    </mxGeometry>
                </mxCell>
                <mxCell id="xIzZ9h9AH1w-tKXrf8BA-46" value="" style="endArrow=none;html=1;fontColor=#FFFFFF;" parent="1" edge="1">
                    <mxGeometry width="50" height="50" relative="1" as="geometry">
                        <mxPoint x="469.07000000000016" y="690" as="sourcePoint"/>
                        <mxPoint x="569.0699999999997" y="690" as="targetPoint"/>
                        <Array as="points">
                            <mxPoint x="559.07" y="690"/>
                        </Array>
                    </mxGeometry>
                </mxCell>
                <mxCell id="xIzZ9h9AH1w-tKXrf8BA-47" value="" style="endArrow=none;html=1;fontColor=#FFFFFF;" parent="1" edge="1">
                    <mxGeometry width="50" height="50" relative="1" as="geometry">
                        <mxPoint x="470" y="690" as="sourcePoint"/>
                        <mxPoint x="470" y="650" as="targetPoint"/>
                    </mxGeometry>
                </mxCell>
                <mxCell id="xIzZ9h9AH1w-tKXrf8BA-48" value="" style="endArrow=none;html=1;fontColor=#FFFFFF;" parent="1" edge="1">
                    <mxGeometry width="50" height="50" relative="1" as="geometry">
                        <mxPoint x="170" y="320" as="sourcePoint"/>
                        <mxPoint x="170" y="200" as="targetPoint"/>
                    </mxGeometry>
                </mxCell>
                <mxCell id="xIzZ9h9AH1w-tKXrf8BA-49" value="" style="endArrow=none;html=1;fontColor=#FFFFFF;" parent="1" edge="1">
                    <mxGeometry width="50" height="50" relative="1" as="geometry">
                        <mxPoint x="170" y="320" as="sourcePoint"/>
                        <mxPoint x="270" y="320" as="targetPoint"/>
                    </mxGeometry>
                </mxCell>
                <mxCell id="xIzZ9h9AH1w-tKXrf8BA-50" value="" style="endArrow=none;html=1;fontColor=#FFFFFF;" parent="1" edge="1">
                    <mxGeometry width="50" height="50" relative="1" as="geometry">
                        <mxPoint x="340" y="320" as="sourcePoint"/>
                        <mxPoint x="460" y="320" as="targetPoint"/>
                        <Array as="points"/>
                    </mxGeometry>
                </mxCell>
                <mxCell id="xIzZ9h9AH1w-tKXrf8BA-51" value="" style="endArrow=none;html=1;fontColor=#FFFFFF;" parent="1" edge="1">
                    <mxGeometry width="50" height="50" relative="1" as="geometry">
                        <mxPoint x="459" y="440" as="sourcePoint"/>
                        <mxPoint x="459" y="320" as="targetPoint"/>
                    </mxGeometry>
                </mxCell>
                <mxCell id="xIzZ9h9AH1w-tKXrf8BA-52" value="" style="endArrow=none;html=1;fontColor=#FFFFFF;entryX=0.01;entryY=0.326;entryDx=0;entryDy=0;entryPerimeter=0;" parent="1" target="xIzZ9h9AH1w-tKXrf8BA-12" edge="1">
                    <mxGeometry width="50" height="50" relative="1" as="geometry">
                        <mxPoint x="780" y="140" as="sourcePoint"/>
                        <mxPoint x="890" y="200" as="targetPoint"/>
                    </mxGeometry>
                </mxCell>
                <mxCell id="xIzZ9h9AH1w-tKXrf8BA-53" value="" style="endArrow=none;html=1;fontColor=#FFFFFF;" parent="1" edge="1">
                    <mxGeometry width="50" height="50" relative="1" as="geometry">
                        <mxPoint x="780" y="240" as="sourcePoint"/>
                        <mxPoint x="780" y="140" as="targetPoint"/>
                    </mxGeometry>
                </mxCell>
                <mxCell id="xIzZ9h9AH1w-tKXrf8BA-54" value="" style="endArrow=none;html=1;fontColor=#FFFFFF;entryX=0.435;entryY=1.204;entryDx=0;entryDy=0;entryPerimeter=0;" parent="1" target="xIzZ9h9AH1w-tKXrf8BA-78" edge="1">
                    <mxGeometry width="50" height="50" relative="1" as="geometry">
                        <mxPoint x="780" y="480" as="sourcePoint"/>
                        <mxPoint x="780" y="360" as="targetPoint"/>
                    </mxGeometry>
                </mxCell>
                <mxCell id="xIzZ9h9AH1w-tKXrf8BA-55" value="" style="endArrow=none;html=1;fontColor=#FFFFFF;exitX=1.007;exitY=0.256;exitDx=0;exitDy=0;exitPerimeter=0;" parent="1" source="xIzZ9h9AH1w-tKXrf8BA-3" edge="1">
                    <mxGeometry width="50" height="50" relative="1" as="geometry">
                        <mxPoint x="550" y="480" as="sourcePoint"/>
                        <mxPoint x="780" y="480" as="targetPoint"/>
                        <Array as="points"/>
                    </mxGeometry>
                </mxCell>
                <mxCell id="xIzZ9h9AH1w-tKXrf8BA-56" value="" style="endArrow=none;html=1;fontColor=#FFFFFF;" parent="1" edge="1">
                    <mxGeometry width="50" height="50" relative="1" as="geometry">
                        <mxPoint x="118.88999999999987" y="1000" as="sourcePoint"/>
                        <mxPoint x="118.88999999999987" y="880" as="targetPoint"/>
                    </mxGeometry>
                </mxCell>
                <mxCell id="xIzZ9h9AH1w-tKXrf8BA-57" value="" style="endArrow=none;html=1;fontColor=#FFFFFF;exitX=0.974;exitY=0.665;exitDx=0;exitDy=0;exitPerimeter=0;" parent="1" edge="1">
                    <mxGeometry width="50" height="50" relative="1" as="geometry">
                        <mxPoint x="-6.17653178864839" y="878.7697693372945" as="sourcePoint"/>
                        <mxPoint x="120.00000000000045" y="878.8899999999999" as="targetPoint"/>
                    </mxGeometry>
                </mxCell>
                <mxCell id="xIzZ9h9AH1w-tKXrf8BA-58" value="" style="endArrow=none;html=1;fontColor=#FFFFFF;" parent="1" edge="1">
                    <mxGeometry width="50" height="50" relative="1" as="geometry">
                        <mxPoint x="-210.45000000000027" y="880" as="sourcePoint"/>
                        <mxPoint x="-210" y="740" as="targetPoint"/>
                    </mxGeometry>
                </mxCell>
                <mxCell id="xIzZ9h9AH1w-tKXrf8BA-59" value="" style="endArrow=none;html=1;fontColor=#FFFFFF;" parent="1" edge="1">
                    <mxGeometry width="50" height="50" relative="1" as="geometry">
                        <mxPoint x="160" y="1000" as="sourcePoint"/>
                        <mxPoint x="160" y="820" as="targetPoint"/>
                    </mxGeometry>
                </mxCell>
                <mxCell id="xIzZ9h9AH1w-tKXrf8BA-61" value="" style="endArrow=none;html=1;fontColor=#FFFFFF;" parent="1" edge="1">
                    <mxGeometry width="50" height="50" relative="1" as="geometry">
                        <mxPoint x="162" y="700" as="sourcePoint"/>
                        <mxPoint x="161.52999999999975" y="600" as="targetPoint"/>
                    </mxGeometry>
                </mxCell>
                <mxCell id="xIzZ9h9AH1w-tKXrf8BA-62" value="" style="endArrow=none;html=1;fontColor=#FFFFFF;exitX=1.007;exitY=0.256;exitDx=0;exitDy=0;exitPerimeter=0;" parent="1" edge="1">
                    <mxGeometry width="50" height="50" relative="1" as="geometry">
                        <mxPoint x="160.98000000000002" y="599.9999999999995" as="sourcePoint"/>
                        <mxPoint x="400" y="602.3200000000002" as="targetPoint"/>
                        <Array as="points"/>
                    </mxGeometry>
                </mxCell>
                <mxCell id="xIzZ9h9AH1w-tKXrf8BA-63" value="&lt;font color=&quot;#ffffff&quot;&gt;&lt;br&gt;&lt;/font&gt;" style="text;html=1;strokeColor=none;fillColor=none;align=center;verticalAlign=middle;whiteSpace=wrap;rounded=0;strokeWidth=0;fontColor=#D2AB11;rotation=0;" parent="1" vertex="1">
                    <mxGeometry x="810" y="539.6700000000001" width="56.184000000000005" height="30.333655705996133" as="geometry"/>
                </mxCell>
                <mxCell id="xIzZ9h9AH1w-tKXrf8BA-64" value="1,&amp;nbsp; N" style="text;html=1;strokeColor=none;fillColor=none;align=center;verticalAlign=middle;whiteSpace=wrap;rounded=0;strokeWidth=0;fontColor=#FFFFFF;" parent="1" vertex="1">
                    <mxGeometry x="170" y="210" width="60" height="30" as="geometry"/>
                </mxCell>
                <mxCell id="xIzZ9h9AH1w-tKXrf8BA-65" value="1,&amp;nbsp; N" style="text;html=1;strokeColor=none;fillColor=none;align=center;verticalAlign=middle;whiteSpace=wrap;rounded=0;strokeWidth=0;fontColor=#FFFFFF;" parent="1" vertex="1">
                    <mxGeometry x="460" y="400" width="60" height="30" as="geometry"/>
                </mxCell>
                <mxCell id="xIzZ9h9AH1w-tKXrf8BA-66" value="1,&amp;nbsp; N" style="text;html=1;strokeColor=none;fillColor=none;align=center;verticalAlign=middle;whiteSpace=wrap;rounded=0;strokeWidth=0;fontColor=#FFFFFF;" parent="1" vertex="1">
                    <mxGeometry x="840" y="100" width="60" height="30" as="geometry"/>
                </mxCell>
                <mxCell id="xIzZ9h9AH1w-tKXrf8BA-67" value="1,&amp;nbsp; N" style="text;html=1;strokeColor=none;fillColor=none;align=center;verticalAlign=middle;whiteSpace=wrap;rounded=0;strokeWidth=0;fontColor=#FFFFFF;" parent="1" vertex="1">
                    <mxGeometry x="550" y="440" width="60" height="30" as="geometry"/>
                </mxCell>
                <mxCell id="xIzZ9h9AH1w-tKXrf8BA-68" value="1, 1" style="text;html=1;strokeColor=none;fillColor=none;align=center;verticalAlign=middle;whiteSpace=wrap;rounded=0;strokeWidth=0;fontColor=#FFFFFF;" parent="1" vertex="1">
                    <mxGeometry x="480" y="650" width="60" height="30" as="geometry"/>
                </mxCell>
                <mxCell id="xIzZ9h9AH1w-tKXrf8BA-69" value="1, N" style="text;html=1;strokeColor=none;fillColor=none;align=center;verticalAlign=middle;whiteSpace=wrap;rounded=0;strokeWidth=0;fontColor=#FFFFFF;" parent="1" vertex="1">
                    <mxGeometry x="771" y="778.17" width="60" height="30" as="geometry"/>
                </mxCell>
                <mxCell id="xIzZ9h9AH1w-tKXrf8BA-70" value="1, 1" style="text;html=1;strokeColor=none;fillColor=none;align=center;verticalAlign=middle;whiteSpace=wrap;rounded=0;strokeWidth=0;fontColor=#FFFFFF;" parent="1" vertex="1">
                    <mxGeometry x="-210" y="748.17" width="60" height="30" as="geometry"/>
                </mxCell>
                <mxCell id="xIzZ9h9AH1w-tKXrf8BA-71" value="1, 1" style="text;html=1;strokeColor=none;fillColor=none;align=center;verticalAlign=middle;whiteSpace=wrap;rounded=0;strokeWidth=0;fontColor=#FFFFFF;" parent="1" vertex="1">
                    <mxGeometry x="60" y="960" width="60" height="30" as="geometry"/>
                </mxCell>
                <mxCell id="xIzZ9h9AH1w-tKXrf8BA-72" value="1, 1" style="text;html=1;strokeColor=none;fillColor=none;align=center;verticalAlign=middle;whiteSpace=wrap;rounded=0;strokeWidth=0;fontColor=#FFFFFF;" parent="1" vertex="1">
                    <mxGeometry x="160" y="960" width="60" height="30" as="geometry"/>
                </mxCell>
                <mxCell id="xIzZ9h9AH1w-tKXrf8BA-73" value="1, N" style="text;html=1;strokeColor=none;fillColor=none;align=center;verticalAlign=middle;whiteSpace=wrap;rounded=0;strokeWidth=0;fontColor=#FFFFFF;" parent="1" vertex="1">
                    <mxGeometry x="330" y="570" width="60" height="30" as="geometry"/>
                </mxCell>
                <mxCell id="xIzZ9h9AH1w-tKXrf8BA-74" value="&lt;b style=&quot;&quot;&gt;&lt;font color=&quot;#1e3926&quot;&gt;sponsorer&lt;/font&gt;&lt;/b&gt;" style="swimlane;fontStyle=0;childLayout=stackLayout;horizontal=1;startSize=30;horizontalStack=0;resizeParent=1;resizeParentMax=0;resizeLast=0;collapsible=1;marginBottom=0;whiteSpace=wrap;html=1;rounded=1;" parent="1" vertex="1">
                    <mxGeometry x="720" y="220" width="140" height="120" as="geometry"/>
                </mxCell>
                <mxCell id="xIzZ9h9AH1w-tKXrf8BA-75" value="id" style="text;align=left;verticalAlign=middle;spacingLeft=4;spacingRight=4;overflow=hidden;points=[[0,0.5],[1,0.5]];portConstraint=eastwest;rotatable=0;whiteSpace=wrap;html=1;fillColor=none;strokeWidth=10;" parent="xIzZ9h9AH1w-tKXrf8BA-74" vertex="1">
                    <mxGeometry y="30" width="140" height="30" as="geometry"/>
                </mxCell>
                <mxCell id="LQebW2Mpe9o4gzpwTiE0-1" value="" style="endArrow=none;html=1;fontColor=#FFFFFF;" parent="xIzZ9h9AH1w-tKXrf8BA-74" edge="1">
                    <mxGeometry width="50" height="50" relative="1" as="geometry">
                        <mxPoint y="50" as="sourcePoint"/>
                        <mxPoint x="90" y="50" as="targetPoint"/>
                    </mxGeometry>
                </mxCell>
                <mxCell id="xIzZ9h9AH1w-tKXrf8BA-77" value="#evenement_id" style="text;strokeColor=none;fillColor=none;align=left;verticalAlign=middle;spacingLeft=4;spacingRight=4;overflow=hidden;points=[[0,0.5],[1,0.5]];portConstraint=eastwest;rotatable=0;whiteSpace=wrap;html=1;" parent="xIzZ9h9AH1w-tKXrf8BA-74" vertex="1">
                    <mxGeometry y="60" width="140" height="30" as="geometry"/>
                </mxCell>
                <mxCell id="xIzZ9h9AH1w-tKXrf8BA-78" value="#sponsor_id" style="text;strokeColor=none;fillColor=none;align=left;verticalAlign=middle;spacingLeft=4;spacingRight=4;overflow=hidden;points=[[0,0.5],[1,0.5]];portConstraint=eastwest;rotatable=0;whiteSpace=wrap;html=1;" parent="xIzZ9h9AH1w-tKXrf8BA-74" vertex="1">
                    <mxGeometry y="90" width="140" height="30" as="geometry"/>
                </mxCell>
                <mxCell id="LQebW2Mpe9o4gzpwTiE0-2" value="&lt;b style=&quot;&quot;&gt;&lt;font color=&quot;#1e3926&quot;&gt;organiser&lt;/font&gt;&lt;/b&gt;" style="swimlane;fontStyle=0;childLayout=stackLayout;horizontal=1;startSize=30;horizontalStack=0;resizeParent=1;resizeParentMax=0;resizeLast=0;collapsible=1;marginBottom=0;whiteSpace=wrap;html=1;rounded=1;" parent="1" vertex="1">
                    <mxGeometry x="200.92999999999995" y="290" width="140" height="120" as="geometry"/>
                </mxCell>
                <mxCell id="LQebW2Mpe9o4gzpwTiE0-3" value="id" style="text;align=left;verticalAlign=middle;spacingLeft=4;spacingRight=4;overflow=hidden;points=[[0,0.5],[1,0.5]];portConstraint=eastwest;rotatable=0;whiteSpace=wrap;html=1;fillColor=none;strokeWidth=10;" parent="LQebW2Mpe9o4gzpwTiE0-2" vertex="1">
                    <mxGeometry y="30" width="140" height="30" as="geometry"/>
                </mxCell>
                <mxCell id="LQebW2Mpe9o4gzpwTiE0-4" value="" style="endArrow=none;html=1;fontColor=#FFFFFF;" parent="LQebW2Mpe9o4gzpwTiE0-2" edge="1">
                    <mxGeometry width="50" height="50" relative="1" as="geometry">
                        <mxPoint y="50" as="sourcePoint"/>
                        <mxPoint x="79.07000000000005" y="50" as="targetPoint"/>
                    </mxGeometry>
                </mxCell>
                <mxCell id="LQebW2Mpe9o4gzpwTiE0-5" value="#evenement_id" style="text;strokeColor=none;fillColor=none;align=left;verticalAlign=middle;spacingLeft=4;spacingRight=4;overflow=hidden;points=[[0,0.5],[1,0.5]];portConstraint=eastwest;rotatable=0;whiteSpace=wrap;html=1;" parent="LQebW2Mpe9o4gzpwTiE0-2" vertex="1">
                    <mxGeometry y="60" width="140" height="30" as="geometry"/>
                </mxCell>
                <mxCell id="LQebW2Mpe9o4gzpwTiE0-6" value="#organisateur_id" style="text;strokeColor=none;fillColor=none;align=left;verticalAlign=middle;spacingLeft=4;spacingRight=4;overflow=hidden;points=[[0,0.5],[1,0.5]];portConstraint=eastwest;rotatable=0;whiteSpace=wrap;html=1;" parent="LQebW2Mpe9o4gzpwTiE0-2" vertex="1">
                    <mxGeometry y="90" width="140" height="30" as="geometry"/>
                </mxCell>
                <mxCell id="LQebW2Mpe9o4gzpwTiE0-66" value="" style="group;rotation=-45;" parent="1" vertex="1" connectable="0">
                    <mxGeometry x="350" y="800.0000000000001" width="149.99999999999994" height="131.81999999999994" as="geometry"/>
                </mxCell>
                <mxCell id="LQebW2Mpe9o4gzpwTiE0-74" value="&lt;font color=&quot;#2f8e4b&quot;&gt;&lt;b&gt;Placer&lt;/b&gt;&lt;/font&gt;" style="swimlane;fontStyle=0;childLayout=stackLayout;horizontal=1;startSize=30;horizontalStack=0;resizeParent=1;resizeParentMax=0;resizeLast=0;collapsible=1;marginBottom=0;whiteSpace=wrap;html=1;rounded=1;" parent="LQebW2Mpe9o4gzpwTiE0-66" vertex="1">
                    <mxGeometry x="209.99999999999994" y="-138.18000000000006" width="140" height="120" as="geometry"/>
                </mxCell>
                <mxCell id="LQebW2Mpe9o4gzpwTiE0-75" value="id" style="text;align=left;verticalAlign=middle;spacingLeft=4;spacingRight=4;overflow=hidden;points=[[0,0.5],[1,0.5]];portConstraint=eastwest;rotatable=0;whiteSpace=wrap;html=1;fillColor=none;strokeWidth=10;" parent="LQebW2Mpe9o4gzpwTiE0-74" vertex="1">
                    <mxGeometry y="30" width="140" height="30" as="geometry"/>
                </mxCell>
                <mxCell id="LQebW2Mpe9o4gzpwTiE0-76" value="" style="endArrow=none;html=1;fontColor=#FFFFFF;" parent="LQebW2Mpe9o4gzpwTiE0-74" edge="1">
                    <mxGeometry width="50" height="50" relative="1" as="geometry">
                        <mxPoint y="50" as="sourcePoint"/>
                        <mxPoint x="89.07000000000005" y="50.17999999999995" as="targetPoint"/>
                    </mxGeometry>
                </mxCell>
                <mxCell id="LQebW2Mpe9o4gzpwTiE0-77" value="#lieu_id" style="text;strokeColor=none;fillColor=none;align=left;verticalAlign=middle;spacingLeft=4;spacingRight=4;overflow=hidden;points=[[0,0.5],[1,0.5]];portConstraint=eastwest;rotatable=0;whiteSpace=wrap;html=1;" parent="LQebW2Mpe9o4gzpwTiE0-74" vertex="1">
                    <mxGeometry y="60" width="140" height="30" as="geometry"/>
                </mxCell>
                <mxCell id="LQebW2Mpe9o4gzpwTiE0-78" value="#evenement_id" style="text;strokeColor=none;fillColor=none;align=left;verticalAlign=middle;spacingLeft=4;spacingRight=4;overflow=hidden;points=[[0,0.5],[1,0.5]];portConstraint=eastwest;rotatable=0;whiteSpace=wrap;html=1;" parent="LQebW2Mpe9o4gzpwTiE0-74" vertex="1">
                    <mxGeometry y="90" width="140" height="30" as="geometry"/>
                </mxCell>
                <mxCell id="LQebW2Mpe9o4gzpwTiE0-79" value="" style="endArrow=none;html=1;fontColor=#FFFFFF;" parent="LQebW2Mpe9o4gzpwTiE0-74" edge="1">
                    <mxGeometry width="50" height="50" relative="1" as="geometry">
                        <mxPoint x="-90" y="910" as="sourcePoint"/>
                        <mxPoint y="910" as="targetPoint"/>
                    </mxGeometry>
                </mxCell>
            </root>
        </mxGraphModel>
    </diagram>
</mxfile>